<svg width="1000" height="1000" viewBox="0 0 1000 1000" fill="none" xmlns="http://www.w3.org/2000/svg">
<rect width="1000" height="1000" fill="#1D1D1D"/>
<path d="M306.325 682.352C205.751 682.352 130 602.89 130 504.753C130 406.318 201.876 326.191 306.325 326.191C361.775 326.191 400.133 343.186 430.11 382.112L381.76 422.351C361.442 400.752 336.952 389.971 306.325 389.971C238.306 389.971 200.912 441.954 200.912 504.753C200.912 567.553 241.864 618.573 306.325 618.573C336.636 618.573 362.424 607.791 382.725 586.193L430.426 628.059C401.746 665.34 362.406 682.352 306.325 682.352ZM638.675 421.021H703.784V676.121H638.675V638.841C625.141 665.34 602.561 683 559.383 683C490.399 683 435.264 623.141 435.264 549.56C435.264 475.961 490.399 416.12 559.383 416.12C602.246 416.12 625.123 433.78 638.675 460.261V421.021ZM640.603 549.56C640.603 509.654 613.203 476.626 570.007 476.626C528.423 476.626 501.356 509.986 501.356 549.56C501.356 588.153 528.423 622.493 570.007 622.493C612.887 622.493 640.603 589.133 640.603 549.56ZM749.89 318H815V675.806H749.89V318Z" fill="white"/>
</svg>
