<svg width="1000" height="1000" viewBox="0 0 1000 1000" fill="none" xmlns="http://www.w3.org/2000/svg">
<rect width="1000" height="1000" fill="#1B1F23"/>
<path fill-rule="evenodd" clip-rule="evenodd" d="M512 134C304.812 134 137 301.698 137 508.745C137 674.57 244.344 814.63 393.406 864.284C412.156 867.563 419.187 856.321 419.187 846.484C419.187 837.584 418.719 808.072 418.719 776.688C324.5 794.019 300.125 753.734 292.625 732.655C288.406 721.881 270.125 688.622 254.188 679.722C241.062 672.696 222.312 655.364 253.719 654.895C283.25 654.427 304.344 682.064 311.375 693.307C345.125 749.987 399.031 734.06 420.594 724.223C423.875 699.865 433.719 683.47 444.5 674.101C361.062 664.732 273.875 632.411 273.875 489.071C273.875 448.317 288.406 414.59 312.313 388.358C308.563 378.989 295.437 340.578 316.062 289.051C316.062 289.051 347.469 279.214 419.187 327.462C449.187 319.03 481.063 314.814 512.938 314.814C544.813 314.814 576.688 319.03 606.688 327.462C678.406 278.745 709.813 289.051 709.813 289.051C730.438 340.578 717.313 378.989 713.563 388.358C737.469 414.59 752 447.849 752 489.071C752 632.879 664.344 664.732 580.906 674.101C594.5 685.812 606.219 708.297 606.219 743.429C606.219 793.551 605.75 833.836 605.75 846.484C605.75 856.321 612.781 868.032 631.531 864.284C779.656 814.63 887 674.101 887 508.745C887 301.698 719.188 134 512 134Z" fill="white"/>
</svg>
