<svg width="1000" height="1000" viewBox="0 0 1000 1000" fill="none" xmlns="http://www.w3.org/2000/svg">
<rect width="1000" height="1000" fill="#1B1F23"/>
<path d="M565.176 802.696L512.738 855.134L460.3 802.696L512.738 750.258L565.176 802.696Z" fill="white"/>
<path d="M467.124 745.272L398.614 773.654L370.232 705.14L438.746 676.759L467.124 745.272Z" fill="white"/>
<path d="M654.4 704.901L626.022 773.415L557.508 745.033L585.886 676.52L654.4 704.901Z" fill="white"/>
<path d="M334.865 751.344H260.705V677.184H334.865V751.344Z" fill="white"/>
<path d="M764.346 750.315H690.189V676.158H764.346V750.315Z" fill="white"/>
<path d="M565.179 654.755L512.741 707.192L460.304 654.755L512.741 602.317L565.179 654.755Z" fill="white"/>
<path d="M439.445 646.732H365.285V572.575H439.445V646.732Z" fill="white"/>
<path d="M659.741 645.706H585.581V571.549H659.741V645.706Z" fill="white"/>
<path d="M334.486 572.895L306.108 641.409L237.594 613.031L265.972 544.517L334.486 572.895Z" fill="white"/>
<path d="M786.659 612.381L718.145 640.762L689.767 572.249L758.281 543.867L786.659 612.381Z" fill="white"/>
<path d="M408.678 499.701L356.244 552.142L303.806 499.701L356.244 447.263L408.678 499.701Z" fill="white"/>
<path d="M260.75 499.701L208.313 552.139L155.875 499.701L208.313 447.263L260.75 499.701Z" fill="white"/>
<path d="M868.125 498.281L815.687 550.719L763.253 498.281L815.687 445.844L868.125 498.281Z" fill="white"/>
<path d="M720.191 498.26L667.753 550.698L615.315 498.26L667.753 445.823L720.191 498.26Z" fill="white"/>
<path d="M334.233 425.73L265.719 454.112L237.341 385.598L305.855 357.217L334.233 425.73Z" fill="white"/>
<path d="M786.41 384.941L758.032 453.455L689.518 425.077L717.896 356.563L786.41 384.941Z" fill="white"/>
<path d="M438.419 426.43H364.262V352.269H438.419V426.43Z" fill="white"/>
<path d="M658.715 425.403H584.555V351.246H658.715V425.403Z" fill="white"/>
<path d="M563.703 343.238L511.266 395.676L458.828 343.238L511.266 290.801L563.703 343.238Z" fill="white"/>
<path d="M333.811 321.818H259.654V247.661H333.811V321.818Z" fill="white"/>
<path d="M466.488 252.949L438.11 321.463L369.596 293.081L397.975 224.568L466.488 252.949Z" fill="white"/>
<path d="M653.771 292.835L585.257 321.213L556.879 252.7L625.393 224.322L653.771 292.835Z" fill="white"/>
<path d="M763.32 320.82H689.163V246.659H763.32V320.82Z" fill="white"/>
<path d="M563.724 195.304L511.287 247.742L458.849 195.304L511.287 142.866L563.724 195.304Z" fill="white"/>
</svg>
