<svg width="1000" height="1000" viewBox="0 0 1000 1000" fill="none" xmlns="http://www.w3.org/2000/svg">
<rect width="1000" height="1000" fill="#007EBB"/>
<path fill-rule="evenodd" clip-rule="evenodd" d="M813 800H689.513V589.674C689.513 532.009 667.602 499.784 621.959 499.784C572.307 499.784 546.365 533.319 546.365 589.674V800H427.358V399.333H546.365V453.303C546.365 453.303 582.147 387.092 667.171 387.092C752.157 387.092 813 438.989 813 546.323V800ZM285.384 346.869C244.848 346.869 212 313.764 212 272.935C212 232.105 244.848 199 285.384 199C325.92 199 358.748 232.105 358.748 272.935C358.748 313.764 325.92 346.869 285.384 346.869ZM223.934 800H348.027V399.333H223.934V800Z" fill="white"/>
</svg>
