<svg width="40" height="40" viewBox="0 0 40 40" fill="none" xmlns="http://www.w3.org/2000/svg">
<rect width="40" height="40" fill="#C3BFBC"/>
<path d="M32.7969 18.1012C32.6345 17.8761 32.4208 17.6928 32.1736 17.5665C31.9264 17.4402 31.6526 17.3746 31.375 17.375H29.625V15.625C29.625 15.1609 29.4406 14.7158 29.1124 14.3876C28.7842 14.0594 28.3391 13.875 27.875 13.875H20.292L17.2591 11.6C16.9556 11.3738 16.5875 11.2511 16.2091 11.25H10.375C9.91087 11.25 9.46575 11.4344 9.13756 11.7626C8.80937 12.0908 8.625 12.5359 8.625 13V28.75C8.625 28.9821 8.71719 29.2046 8.88128 29.3687C9.04538 29.5328 9.26794 29.625 9.5 29.625H29.0891C29.2727 29.625 29.4517 29.5672 29.6007 29.4599C29.7497 29.3525 29.8611 29.2009 29.9192 29.0267L33.0353 19.6784C33.1229 19.4154 33.147 19.1353 33.1056 18.8612C33.0641 18.5871 32.9583 18.3266 32.7969 18.1012ZM16.2091 13L19.242 15.275C19.5454 15.5013 19.9135 15.6241 20.292 15.625H27.875V17.375H13.6311C13.2638 17.375 12.9058 17.4905 12.6078 17.7053C12.3098 17.92 12.0869 18.2231 11.9708 18.5716L10.375 23.3578V13H16.2091Z" fill="#78716C"/>
</svg>
